<?xml version="1.0" standalone="no"?>
<svg xmlns:xlink="http://www.w3.org/1999/xlink" id="wave" style="transform:rotate(0deg); transition: 0.3s" viewBox="0 0 1440 280" version="1.1" xmlns="http://www.w3.org/2000/svg"><defs><linearGradient id="sw-gradient-0" x1="0" x2="0" y1="1" y2="0"><stop stop-color="rgba(106.532, 193.897, 98.153, 1)" offset="0%"/><stop stop-color="rgba(216, 246, 205, 1)" offset="100%"/></linearGradient></defs><path style="transform:translate(0, 0px); opacity:1" fill="url(#sw-gradient-0)" d="M0,84L60,107.3C120,131,240,177,360,186.7C480,196,600,168,720,168C840,168,960,196,1080,205.3C1200,215,1320,205,1440,196C1560,187,1680,177,1800,177.3C1920,177,2040,187,2160,196C2280,205,2400,215,2520,205.3C2640,196,2760,168,2880,130.7C3000,93,3120,47,3240,65.3C3360,84,3480,168,3600,205.3C3720,243,3840,233,3960,196C4080,159,4200,93,4320,65.3C4440,37,4560,47,4680,42C4800,37,4920,19,5040,32.7C5160,47,5280,93,5400,126C5520,159,5640,177,5760,177.3C5880,177,6000,159,6120,168C6240,177,6360,215,6480,219.3C6600,224,6720,196,6840,196C6960,196,7080,224,7200,205.3C7320,187,7440,121,7560,98C7680,75,7800,93,7920,93.3C8040,93,8160,75,8280,79.3C8400,84,8520,112,8580,126L8640,140L8640,280L8580,280C8520,280,8400,280,8280,280C8160,280,8040,280,7920,280C7800,280,7680,280,7560,280C7440,280,7320,280,7200,280C7080,280,6960,280,6840,280C6720,280,6600,280,6480,280C6360,280,6240,280,6120,280C6000,280,5880,280,5760,280C5640,280,5520,280,5400,280C5280,280,5160,280,5040,280C4920,280,4800,280,4680,280C4560,280,4440,280,4320,280C4200,280,4080,280,3960,280C3840,280,3720,280,3600,280C3480,280,3360,280,3240,280C3120,280,3000,280,2880,280C2760,280,2640,280,2520,280C2400,280,2280,280,2160,280C2040,280,1920,280,1800,280C1680,280,1560,280,1440,280C1320,280,1200,280,1080,280C960,280,840,280,720,280C600,280,480,280,360,280C240,280,120,280,60,280L0,280Z"/></svg>